REM MD5 bb3df628dfefc7936c290a82f841e164
FILE "DemoDemo PlayStation Vol. 7 (Japan).bin" BINARY
  TRACK 01 MODE2/2352
    INDEX 01 00:00:00
  TRACK 02 AUDIO
    INDEX 00 36:10:26
    INDEX 01 36:12:26
  TRACK 03 AUDIO
    INDEX 00 39:17:26
    INDEX 01 39:19:26
  TRACK 04 AUDIO
    INDEX 00 39:24:26
    INDEX 01 39:26:26
  TRACK 05 AUDIO
    INDEX 00 40:31:59
    INDEX 01 40:33:59
REM LEADOUT 40:57:43
